<svg width="1440" height="800" viewBox="0 0 1440 800" fill="none" xmlns="http://www.w3.org/2000/svg">
  <g opacity="0.2">
    <path d="M1253.83 103.48C1323.1 149.16 1377.99 230.22 1419.01 307.42C1459.63 384.61 1486.9 458.55 1453.95 525.19C1421.01 591.83 1327.48 651.59 1236.36 683.25C1144.82 714.9 1054.94 717.15 966.18 705.18C877.41 693.22 789.23 667.04 715.34 613.24C641.44 559.44 581.22 478.74 541.37 392.66C501.17 306.59 481.05 214.35 526.12 142.33C571.18 70.31 681.97 17.99 789.23 4.09C896.49 -9.81 1000.78 14.15 1108.46 49.16C1216.56 84.18 1184.56 57.8 1253.83 103.48Z" fill="url(#paint0_linear_5_8)"/>
    <path d="M358.83 213.48C428.1 259.16 482.99 340.22 524.01 417.42C564.63 494.61 591.9 568.55 558.95 635.19C526.01 701.83 432.48 761.59 341.36 793.25C249.82 824.9 159.94 827.15 71.18 815.18C-17.59 803.22 -105.77 777.04 -179.66 723.24C-253.56 669.44 -313.78 588.74 -353.63 502.66C-393.83 416.59 -413.95 324.35 -368.88 252.33C-323.82 180.31 -213.03 127.99 -105.77 114.09C1.49 100.19 105.78 124.15 213.46 159.16C321.56 194.18 289.56 167.8 358.83 213.48Z" fill="url(#paint1_linear_5_8)"/>
  </g>
  <defs>
    <linearGradient id="paint0_linear_5_8" x1="1071.5" y1="193" x2="1071.5" y2="693" gradientUnits="userSpaceOnUse">
      <stop stop-color="#2563eb"/>
      <stop offset="1" stop-color="#7c3aed"/>
    </linearGradient>
    <linearGradient id="paint1_linear_5_8" x1="176.5" y1="303" x2="176.5" y2="803" gradientUnits="userSpaceOnUse">
      <stop stop-color="#2563eb"/>
      <stop offset="1" stop-color="#7c3aed"/>
    </linearGradient>
  </defs>
</svg> 